<?xml version="1.0" standalone="no"?>
<!DOCTYPE svg PUBLIC "-//W3C//DTD SVG 20010904//EN"
 "http://www.w3.org/TR/2001/REC-SVG-20010904/DTD/svg10.dtd">
<svg version="1.0" xmlns="http://www.w3.org/2000/svg"
 width="512.000000pt" height="512.000000pt" viewBox="0 0 512.000000 512.000000"
 preserveAspectRatio="xMidYMid meet">
<metadata>
Created by potrace 1.14, written by Peter Selinger 2001-2017
</metadata>
<g transform="translate(0.000000,512.000000) scale(0.100000,-0.100000)"
fill="#000000" stroke="none">
<path d="M2064 4699 c-36 -10 -82 -53 -96 -89 -6 -14 -10 -107 -10 -208 l-1
-182 -97 -86 c-105 -91 -125 -123 -124 -192 1 -61 55 -127 111 -135 12 -2 25
-6 29 -9 3 -4 6 -159 6 -345 -1 -409 2 -424 93 -463 36 -16 91 -17 595 -16
541 1 556 2 590 22 19 11 45 37 57 58 20 38 21 50 21 375 0 400 0 384 12 376
17 -11 77 22 104 57 60 80 42 153 -62 245 -37 33 -132 118 -212 188 -80 71
-158 141 -175 156 -293 260 -276 247 -331 253 -44 4 -87 -11 -119 -40 -11 -11
-60 -54 -108 -97 l-87 -79 0 46 c0 26 -6 62 -14 80 -28 66 -111 105 -182 85z
m531 -377 c17 -15 68 -61 115 -102 47 -41 103 -91 125 -111 22 -21 54 -48 70
-62 l30 -25 0 -371 c1 -247 -3 -372 -10 -374 -5 -2 -174 -3 -375 -3 l-365 1
-1 370 0 370 26 25 c29 28 76 70 200 180 47 41 98 87 115 102 16 16 32 28 35
28 3 0 19 -12 35 -28z"/>
<path d="M3890 2668 c-118 -9 -179 -21 -302 -59 -382 -116 -764 -430 -1096
-901 -220 -313 -344 -463 -492 -599 -227 -208 -442 -327 -679 -374 -474 -95
-908 188 -1004 654 -21 98 -15 262 12 365 69 263 274 484 528 571 98 34 123
38 263 40 119 3 196 -6 300 -35 104 -28 278 -116 393 -198 91 -66 114 -85 231
-194 67 -63 110 -83 162 -75 98 16 156 127 111 214 -20 38 -128 143 -238 230
-225 181 -447 289 -699 342 -71 14 -134 19 -250 19 -135 0 -169 -4 -267 -28
-447 -111 -786 -484 -852 -937 -14 -94 -6 -314 14 -397 125 -529 573 -891
1100 -890 69 0 208 11 245 18 486 102 897 421 1305 1011 380 549 727 829 1130
910 72 15 238 17 316 5 340 -53 629 -336 685 -671 10 -56 11 -231 3 -269 -4
-19 -10 -50 -14 -68 -18 -107 -103 -267 -192 -363 -219 -236 -504 -318 -853
-245 -186 39 -407 165 -605 344 -143 128 -146 131 -195 135 -55 5 -112 -23
-141 -69 -26 -42 -27 -115 -4 -151 27 -41 151 -159 235 -223 25 -19 47 -38 50
-41 12 -15 202 -134 262 -165 378 -191 776 -211 1110 -56 268 124 480 353 588
634 81 209 89 512 19 728 -124 380 -430 667 -809 760 -47 11 -121 23 -165 26
-44 3 -87 6 -95 7 -8 2 -58 -1 -110 -5z"/>
</g>
</svg>
