<?xml version="1.0" standalone="no"?><!DOCTYPE svg PUBLIC "-//W3C//DTD SVG 1.1//EN" "http://www.w3.org/Graphics/SVG/1.1/DTD/svg11.dtd"><svg t="1736516340282" class="icon" viewBox="0 0 1024 1024" version="1.1" xmlns="http://www.w3.org/2000/svg" p-id="1482" width="150" height="150" xmlns:xlink="http://www.w3.org/1999/xlink"><path d="M463.7 746.5l-160-81.5c-49.5-24-75.3-3.9-57.8 54.4 0 0 95.3 230.5 94.8 240.5l143.1-97.2c18.1-17.1 27.6-41.5 22.7-67.1-3.8-19-22.9-38.4-42.8-49.1zM878.6 74.1L93.3 470.8c-33.1 18.5-36.1 44.6-10.5 61.7 4.9 3.3 10.4 5.7 16 7.4l156.3 62.5c45.7 16.4 84.5 4.2 123.8-25.2l351.7-282.5c11.3-9.1 18.1 0.5 8.3 8.6L427.5 605.7c-13 12.7-18.6 31.2-14.6 49 3.8 17.6 17.9 29 33.6 37.3l14 6.3 283.3 134.9 2.9 1.3c36.4 15.8 78.2-4.8 88.5-43.6l1.1-4.3 118.6-655.5c16.2-52.8-29.9-84.5-76.3-57z" p-id="1483" fill="#333333"></path></svg>