<?xml version="1.0" standalone="no"?>
<!DOCTYPE svg PUBLIC "-//W3C//DTD SVG 20010904//EN"
 "http://www.w3.org/TR/2001/REC-SVG-20010904/DTD/svg10.dtd">
<svg version="1.0" xmlns="http://www.w3.org/2000/svg"
 width="512.000000pt" height="512.000000pt" viewBox="0 0 512.000000 512.000000"
 preserveAspectRatio="xMidYMid meet">
<metadata>
Created by potrace 1.14, written by Peter Selinger 2001-2017
</metadata>
<g transform="translate(0.000000,512.000000) scale(0.100000,-0.100000)"
fill="#000000" stroke="none">
<path d="M1314 5043 c-5 -1 -31 -3 -59 -5 l-50 -3 1 -60 c1 -33 4 -89 8 -125
3 -36 8 -101 11 -145 3 -44 7 -105 10 -135 3 -30 7 -86 10 -125 3 -38 7 -95
10 -125 6 -69 13 -152 20 -255 3 -44 8 -100 9 -125 2 -25 8 -90 12 -145 4 -55
7 -120 6 -145 -3 -83 -51 -222 -137 -395 -110 -222 -121 -263 -119 -440 2
-200 70 -364 211 -508 65 -67 111 -100 198 -145 105 -53 179 -72 310 -77 153
-6 189 4 700 199 33 13 68 26 78 30 15 5 16 8 5 19 -75 77 -222 247 -217 251
8 6 220 86 230 86 17 0 229 -84 229 -91 0 -6 -65 -80 -167 -188 -29 -31 -52
-60 -53 -66 0 -14 547 -216 628 -231 39 -8 109 -11 167 -9 320 13 580 214 680
527 44 135 41 347 -5 463 -7 17 -48 102 -91 190 -82 166 -131 308 -132 385 -1
39 7 160 18 280 2 19 6 76 10 125 3 50 8 110 10 135 2 25 7 88 10 140 3 52 8
109 10 125 2 17 7 68 10 115 3 47 8 108 10 135 26 330 26 328 -5 331 -81 10
-130 9 -131 0 0 -6 -2 -27 -4 -46 -2 -19 -6 -78 -9 -130 -4 -52 -8 -115 -11
-140 -6 -72 -17 -202 -30 -385 -7 -93 -18 -235 -20 -265 -2 -19 -6 -82 -10
-140 l-7 -105 -66 -115 c-36 -63 -75 -132 -86 -153 -12 -20 -28 -39 -36 -42
-8 -2 -199 -43 -425 -90 -414 -87 -436 -92 -478 -99 -13 -2 -72 7 -132 20 -61
14 -121 27 -135 29 -35 6 -484 100 -525 109 -5 1 -42 8 -82 16 l-72 13 -60
101 c-131 225 -119 181 -136 461 -2 40 -12 158 -20 250 -2 28 -7 86 -10 130
-12 161 -16 211 -20 260 -2 28 -7 93 -11 145 -4 52 -8 109 -9 125 -2 17 -3 37
-4 45 -1 14 -23 20 -47 13z m496 -1728 c25 -4 47 -8 50 -10 3 -2 21 -6 41 -9
19 -3 74 -14 122 -26 48 -11 98 -20 109 -20 52 0 -6 -20 -138 -47 l-140 -29
-35 50 c-65 96 -73 110 -64 104 6 -4 30 -9 55 -13z m1535 -22 c-55 -85 -82
-122 -86 -119 -4 4 -185 43 -244 53 -31 5 -41 10 -34 17 2 2 18 6 34 9 17 3
51 10 78 16 26 6 62 14 80 17 17 3 57 11 87 19 30 7 66 14 79 14 23 1 23 1 6
-26z m-655 -162 c52 -11 109 -22 125 -26 53 -10 68 -13 165 -34 52 -12 97 -21
100 -21 5 -1 -173 -70 -412 -162 l-107 -41 -53 20 c-219 82 -456 178 -453 184
3 4 24 10 48 13 23 4 135 26 247 50 113 24 214 42 225 40 11 -1 63 -12 115
-23z m-505 -311 c22 -10 64 -26 93 -36 49 -17 68 -34 40 -34 -7 0 -24 -6 -38
-13 -58 -30 -67 -28 -112 26 -23 29 -49 60 -57 71 -15 18 -15 18 9 11 14 -4
43 -15 65 -25z m816 3 c-11 -16 -37 -47 -58 -71 l-38 -42 -57 22 c-32 13 -58
25 -58 28 0 5 206 87 223 89 5 1 -1 -11 -12 -26z"/>
<path d="M2276 1586 c-47 -18 -92 -67 -108 -119 -11 -37 -7 -79 18 -156 4 -14
3 -22 -2 -19 -5 3 -37 9 -71 12 l-63 7 20 -53 c383 -1017 375 -999 459 -1013
58 -10 97 2 134 39 25 26 53 87 131 297 54 145 104 278 111 294 7 17 36 93 65
170 29 77 63 168 76 202 l24 63 -63 -6 c-34 -3 -66 -8 -71 -11 -5 -4 -6 4 -2
18 5 13 13 45 19 71 36 157 -148 277 -281 184 -20 -14 -53 -50 -72 -81 -19
-30 -37 -55 -40 -55 -3 0 -21 25 -40 55 -63 99 -151 135 -244 101z m108 -186
l26 -40 -23 0 c-45 0 -85 49 -60 73 14 15 32 5 57 -33z m400 34 c39 -15 -3
-78 -49 -72 -26 3 -27 5 -13 18 8 9 20 25 27 38 13 24 13 24 35 16z m-188
-148 c149 1 284 4 299 8 27 7 28 7 13 -16 -20 -32 -114 -78 -160 -78 l-38 0
35 -55 c19 -30 35 -56 35 -59 0 -11 -121 -87 -129 -82 -5 3 -26 33 -47 66 -22
33 -41 60 -44 60 -3 0 -23 -27 -45 -61 -22 -33 -43 -63 -47 -65 -9 -6 -128 73
-128 84 0 4 16 31 35 60 l36 52 -34 0 c-19 0 -49 5 -68 12 -34 11 -109 64
-109 77 0 3 28 4 63 1 34 -3 184 -5 333 -4z"/>
<path d="M1202 1414 l3 -79 100 -33 c109 -36 334 -94 430 -111 33 -6 69 -13
80 -15 73 -13 115 -16 115 -8 0 5 -6 25 -13 43 -8 19 -21 55 -31 80 -9 25 -22
46 -29 46 -19 1 -86 12 -167 29 -41 9 -84 18 -95 19 -46 7 -333 83 -382 102
-11 5 -13 -9 -11 -73z"/>
<path d="M3800 1455 c-63 -19 -126 -37 -140 -39 -14 -3 -97 -21 -185 -41 -88
-19 -174 -35 -192 -37 -29 -2 -33 -7 -58 -72 -14 -39 -31 -79 -36 -89 -9 -17
-6 -18 48 -12 32 4 66 9 75 11 10 3 30 7 45 10 125 21 270 57 446 111 l117 36
0 79 c0 43 -1 78 -2 77 -2 0 -55 -16 -118 -34z"/>
</g>
</svg>
