<?xml version="1.0" standalone="no"?>
<!DOCTYPE svg PUBLIC "-//W3C//DTD SVG 20010904//EN"
 "http://www.w3.org/TR/2001/REC-SVG-20010904/DTD/svg10.dtd">
<svg version="1.0" xmlns="http://www.w3.org/2000/svg"
 width="512.000000pt" height="512.000000pt" viewBox="0 0 512.000000 512.000000"
 preserveAspectRatio="xMidYMid meet">
<metadata>
Created by potrace 1.14, written by Peter Selinger 2001-2017
</metadata>
<g transform="translate(0.000000,512.000000) scale(0.100000,-0.100000)"
fill="#000000" stroke="none">
<path d="M1235 3679 c-395 -56 -749 -339 -893 -715 -255 -669 168 -1402 878
-1519 83 -14 291 -14 355 -1 17 4 55 11 85 17 125 25 319 113 429 194 90 66
187 161 251 246 32 43 196 307 363 586 168 279 331 538 362 576 98 118 229
207 379 258 105 35 131 40 251 44 199 8 368 -47 524 -168 35 -27 78 -66 95
-85 17 -20 36 -41 43 -47 45 -45 122 -197 148 -292 22 -80 31 -263 16 -347
-60 -343 -321 -604 -669 -666 -183 -33 -418 20 -579 131 -56 39 -147 127 -188
182 -67 90 -179 101 -254 23 -26 -27 -33 -44 -38 -89 -5 -49 -2 -62 23 -104
70 -120 287 -300 448 -373 549 -246 1195 -15 1469 525 52 103 93 234 112 360
7 44 8 272 1 283 -2 4 -7 27 -10 52 -8 60 -40 173 -68 240 -144 343 -440 590
-813 676 -117 27 -357 25 -482 -4 -240 -56 -447 -174 -610 -345 -82 -86 -116
-136 -243 -347 -51 -85 -103 -171 -115 -190 -12 -19 -100 -165 -195 -325 -187
-313 -244 -398 -312 -460 -81 -76 -135 -112 -236 -161 -106 -51 -209 -75 -337
-79 -161 -5 -287 24 -420 98 -412 231 -542 763 -282 1153 120 182 304 304 527
351 69 14 262 8 335 -11 166 -43 310 -134 423 -267 49 -58 78 -84 109 -95 101
-39 200 25 211 135 6 64 -19 109 -123 219 -163 174 -356 280 -599 331 -95 20
-266 24 -371 10z"/>
<path d="M1295 2975 c-66 -16 -111 -36 -162 -74 -211 -155 -229 -475 -36 -651
208 -190 526 -138 664 109 66 120 66 282 -1 406 -86 161 -288 252 -465 210z"/>
<path d="M3631 2973 c-192 -49 -321 -215 -321 -413 0 -122 42 -221 130 -307
194 -188 520 -144 659 88 63 107 76 257 31 372 -75 196 -298 312 -499 260z"/>
</g>
</svg>
