<?xml version="1.0" standalone="no"?>
<!DOCTYPE svg PUBLIC "-//W3C//DTD SVG 20010904//EN"
 "http://www.w3.org/TR/2001/REC-SVG-20010904/DTD/svg10.dtd">
<svg version="1.0" xmlns="http://www.w3.org/2000/svg"
 width="512.000000pt" height="512.000000pt" viewBox="0 0 512.000000 512.000000"
 preserveAspectRatio="xMidYMid meet">
<metadata>
Created by potrace 1.14, written by Peter Selinger 2001-2017
</metadata>
<g transform="translate(0.000000,512.000000) scale(0.100000,-0.100000)"
fill="#000000" stroke="none">
<path d="M2167 4444 c-1 -1 -25 -4 -53 -8 -194 -23 -362 -162 -426 -354 -42
-125 -26 -292 39 -415 20 -37 127 -153 383 -410 195 -197 367 -365 382 -373
15 -8 45 -14 68 -14 23 0 53 6 68 14 15 8 187 176 383 373 318 320 360 365
389 426 117 241 42 532 -175 672 -193 125 -432 113 -619 -30 -48 -36 -61 -37
-86 -3 -12 16 -126 79 -169 92 -41 14 -177 36 -184 30z m118 -327 c17 -8 66
-51 110 -94 83 -83 130 -108 183 -100 47 8 72 25 152 104 41 41 88 82 105 91
42 23 159 22 203 -1 103 -56 146 -187 96 -293 -17 -35 -556 -584 -574 -584 -5
0 -133 124 -285 276 -177 178 -281 289 -291 313 -47 111 -4 234 100 286 43 22
61 26 111 22 34 -2 74 -11 90 -20z"/>
<path d="M1048 2935 c-2 -2 -31 -5 -64 -9 -170 -18 -371 -98 -524 -209 -80
-59 -208 -191 -262 -272 -141 -212 -201 -421 -193 -670 4 -147 7 -166 41 -284
114 -391 434 -692 835 -785 432 -100 921 65 1328 448 69 66 121 120 216 227
45 51 184 232 251 329 32 47 62 90 67 95 4 6 25 33 45 62 267 365 579 618 883
717 168 54 373 65 519 27 283 -74 509 -288 589 -556 29 -97 32 -117 36 -222
14 -405 -260 -751 -664 -838 -94 -20 -291 -13 -404 14 -98 24 -214 71 -309
124 -85 48 -246 170 -338 258 -89 84 -127 103 -186 94 -100 -15 -156 -124
-110 -213 23 -45 185 -195 307 -284 222 -163 452 -262 684 -294 22 -3 51 -7
65 -10 35 -6 217 -5 265 1 451 59 824 375 949 806 34 120 37 138 41 289 6 233
-41 414 -160 611 -64 105 -72 115 -165 209 -95 97 -169 151 -290 212 -156 80
-301 117 -480 122 -502 14 -972 -253 -1405 -799 -39 -49 -121 -161 -183 -248
-61 -86 -116 -163 -121 -170 -368 -455 -635 -646 -1016 -725 -16 -4 -91 -7
-165 -7 -111 0 -149 4 -215 23 -291 84 -506 299 -587 590 -29 104 -31 294 -4
402 68 274 280 506 537 589 367 119 767 -2 1136 -345 113 -105 133 -117 190
-116 84 1 148 70 145 154 -2 54 -27 90 -114 170 -363 330 -680 473 -1065 483
-57 1 -104 1 -105 0z"/>
</g>
</svg>
